<mxfile host="65bd71144e">
    <diagram id="0d4gfrIWyAAufXZUNcsV" name="ページ1">
        <mxGraphModel dx="2079" dy="790" grid="1" gridSize="10" guides="1" tooltips="1" connect="1" arrows="1" fold="1" page="1" pageScale="1" pageWidth="827" pageHeight="1169" math="0" shadow="0">
            <root>
                <mxCell id="0"/>
                <mxCell id="1" parent="0"/>
                <mxCell id="9" value="Vendingmachine" style="swimlane;" vertex="1" parent="1">
                    <mxGeometry x="220" y="40" width="350" height="370" as="geometry"/>
                </mxCell>
                <mxCell id="10" value="" style="endArrow=classic;html=1;entryX=0;entryY=0.5;entryDx=0;entryDy=0;exitX=0.5;exitY=0;exitDx=0;exitDy=0;" edge="1" parent="1" source="11" target="9">
                    <mxGeometry width="50" height="50" relative="1" as="geometry">
                        <mxPoint x="130" y="340" as="sourcePoint"/>
                        <mxPoint x="230" y="220" as="targetPoint"/>
                        <Array as="points">
                            <mxPoint x="-55" y="225"/>
                        </Array>
                    </mxGeometry>
                </mxCell>
                <mxCell id="11" value="Customer_process" style="swimlane;" vertex="1" parent="1">
                    <mxGeometry x="-270" y="450" width="430" height="540" as="geometry"/>
                </mxCell>
                <mxCell id="26" value="@purchasing = Purchasing.new&lt;br&gt;@slot_money = @purchasing.set_slot_money(put_money)&lt;br&gt;@purchasing.return_slot_money()&lt;br&gt;&lt;br&gt;@drink_stock = Drink_stock.new&lt;br&gt;if @slot_money &amp;gt; @drink_stock.get_stock_lowest_price()&lt;br&gt;&lt;br&gt;&lt;br&gt;&lt;br&gt;initialize()&lt;br&gt;@round = 1&lt;br&gt;&lt;br&gt;private&lt;br&gt;run()&amp;nbsp;&lt;br&gt;&amp;nbsp;-&amp;gt; put_money&lt;br&gt;&lt;br&gt;confirm_slot_again_money()&lt;br&gt;&lt;br&gt;decide_drink&lt;br&gt;-&amp;gt; @slot_money &amp;gt; @drink_stock.get_stock_drink_list()&lt;br&gt;&lt;br&gt;calc_accounting_process&lt;br&gt;" style="text;html=1;strokeColor=none;fillColor=none;align=center;verticalAlign=middle;whiteSpace=wrap;rounded=0;" vertex="1" parent="11">
                    <mxGeometry x="20" y="30" width="380" height="490" as="geometry"/>
                </mxCell>
                <mxCell id="13" value="Admin_main_process" style="swimlane;" vertex="1" parent="1">
                    <mxGeometry x="600" y="370" width="200" height="170" as="geometry"/>
                </mxCell>
                <mxCell id="14" value="" style="endArrow=classic;html=1;entryX=1;entryY=0.5;entryDx=0;entryDy=0;exitX=0.5;exitY=0;exitDx=0;exitDy=0;" edge="1" parent="1" source="13" target="9">
                    <mxGeometry width="50" height="50" relative="1" as="geometry">
                        <mxPoint x="140" y="350" as="sourcePoint"/>
                        <mxPoint x="290" y="135" as="targetPoint"/>
                        <Array as="points">
                            <mxPoint x="700" y="225"/>
                        </Array>
                    </mxGeometry>
                </mxCell>
                <mxCell id="15" value="" style="endArrow=classic;html=1;exitX=0.5;exitY=0;exitDx=0;exitDy=0;entryX=0.5;entryY=1;entryDx=0;entryDy=0;" edge="1" parent="1" source="16" target="13">
                    <mxGeometry width="50" height="50" relative="1" as="geometry">
                        <mxPoint x="650" y="570" as="sourcePoint"/>
                        <mxPoint x="650" y="510" as="targetPoint"/>
                    </mxGeometry>
                </mxCell>
                <mxCell id="16" value="Admin_menu_process" style="swimlane;" vertex="1" parent="1">
                    <mxGeometry x="600" y="610" width="200" height="170" as="geometry"/>
                </mxCell>
                <mxCell id="17" value="Money" style="swimlane;" vertex="1" parent="1">
                    <mxGeometry x="880" y="50" width="430" height="240" as="geometry"/>
                </mxCell>
                <mxCell id="29" value="MONEY = [10, 50, 100, 500, 1000].freeze&lt;br&gt;UNUSED_MONEY = [1, 5, 2000, 5000, 10000].freeze&lt;br&gt;&lt;br&gt;initialize&lt;br&gt;@@slot_money = 0&lt;br&gt;&lt;br&gt;get_current_slot_money()&lt;br&gt;return_money()&lt;br&gt;set_slot_money(money)" style="text;html=1;strokeColor=none;fillColor=none;align=center;verticalAlign=middle;whiteSpace=wrap;rounded=0;" vertex="1" parent="17">
                    <mxGeometry x="10" y="40" width="390" height="130" as="geometry"/>
                </mxCell>
                <mxCell id="18" value="" style="endArrow=classic;html=1;entryX=0.5;entryY=1;entryDx=0;entryDy=0;exitX=0.5;exitY=0;exitDx=0;exitDy=0;" edge="1" parent="1" source="19" target="17">
                    <mxGeometry width="50" height="50" relative="1" as="geometry">
                        <mxPoint x="980" y="310" as="sourcePoint"/>
                        <mxPoint x="600" y="260" as="targetPoint"/>
                    </mxGeometry>
                </mxCell>
                <mxCell id="19" value="Purchasing" style="swimlane;startSize=23;" vertex="1" parent="1">
                    <mxGeometry x="880" y="390" width="430" height="280" as="geometry"/>
                </mxCell>
                <mxCell id="20" value="Drink_master" style="swimlane;" vertex="1" parent="1">
                    <mxGeometry x="1500" y="50" width="360" height="230" as="geometry"/>
                </mxCell>
                <mxCell id="33" value="initialize&lt;br&gt;@@drink_price = { &quot;コーラ&quot;: 120, &quot;水&quot;: 100, &quot;レッドブル&quot;: 200 }&lt;br&gt;&lt;br&gt;&lt;span style=&quot;color: rgb(240 , 240 , 240) ; font-family: &amp;#34;helvetica&amp;#34; ; font-size: 12px ; font-style: normal ; font-weight: 400 ; letter-spacing: normal ; text-align: center ; text-indent: 0px ; text-transform: none ; word-spacing: 0px ; background-color: rgb(42 , 42 , 42) ; display: inline ; float: none&quot;&gt;get_drink_list()&lt;/span&gt;" style="text;html=1;strokeColor=none;fillColor=none;align=center;verticalAlign=middle;whiteSpace=wrap;rounded=0;" vertex="1" parent="20">
                    <mxGeometry x="20" y="50" width="280" height="90" as="geometry"/>
                </mxCell>
                <mxCell id="21" value="" style="endArrow=classic;html=1;entryX=0.5;entryY=1;entryDx=0;entryDy=0;exitX=0.5;exitY=0;exitDx=0;exitDy=0;" edge="1" parent="1" source="22" target="20">
                    <mxGeometry width="50" height="50" relative="1" as="geometry">
                        <mxPoint x="1600" y="310" as="sourcePoint"/>
                        <mxPoint x="1220" y="260" as="targetPoint"/>
                    </mxGeometry>
                </mxCell>
                <mxCell id="22" value="Drink_stock" style="swimlane;startSize=23;" vertex="1" parent="1">
                    <mxGeometry x="1480" y="390" width="400" height="280" as="geometry"/>
                </mxCell>
                <mxCell id="23" value="@customer_process = Customer_process.new&amp;nbsp;&lt;br&gt;@customer_process.run&lt;br&gt;&lt;br&gt;@purchasing = Purchasing.new&lt;br&gt;@slot_money = @purchasing.get _current_slot_money()&lt;br&gt;@sales_amount = @purchasing.get_sales_amount()&lt;br&gt;&lt;br&gt;@drink_stock = Drink_stock.new&lt;br&gt;drink_list = @drink_stock.get_drink_list&lt;br&gt;@purchased_drink = @drink.get_purhased_drink&lt;br&gt;&lt;br&gt;initialize()&lt;br&gt;@total_money = 0&lt;br&gt;@sales_amount = 0&lt;br&gt;@purchased_drink = nil&lt;br&gt;&lt;br&gt;set_answer()&lt;br&gt;&lt;br&gt;private&lt;br&gt;&amp;nbsp;run()&lt;br&gt;get_current_status()&lt;br&gt;ask_anything_want()&lt;br&gt;set_arguments()" style="text;html=1;strokeColor=none;fillColor=none;align=center;verticalAlign=middle;whiteSpace=wrap;rounded=0;" vertex="1" parent="1">
                    <mxGeometry x="220" y="70" width="350" height="340" as="geometry"/>
                </mxCell>
                <mxCell id="31" value="initialize&lt;br&gt;@@sales_amount = 0&lt;br&gt;&lt;br&gt;set_sales_amoount(select_drink_price)&lt;br&gt;get_sales_amount&lt;br&gt;&lt;br&gt;" style="text;html=1;strokeColor=none;fillColor=none;align=center;verticalAlign=middle;whiteSpace=wrap;rounded=0;" vertex="1" parent="1">
                    <mxGeometry x="920" y="430" width="370" height="230" as="geometry"/>
                </mxCell>
                <mxCell id="32" value="initialize&lt;br&gt;@@drink_stock = { &quot;コーラ&quot;: 5, &quot;水&quot;: 5, &quot;レッドブル&quot;: 5 }&lt;br&gt;&lt;br&gt;set_sales_amoount(select_drink_price)&lt;br&gt;get_sales_amount&lt;br&gt;set_purchased_drink(select_drink)&lt;br&gt;get_purchased_drink" style="text;html=1;strokeColor=none;fillColor=none;align=center;verticalAlign=middle;whiteSpace=wrap;rounded=0;" vertex="1" parent="1">
                    <mxGeometry x="1495" y="430" width="370" height="230" as="geometry"/>
                </mxCell>
            </root>
        </mxGraphModel>
    </diagram>
</mxfile>